<svg width="512" height="512" xmlns="http://www.w3.org/2000/svg">
 <defs>
  <linearGradient y2="Infinity" y1="Infinity" x2="Infinity" x1="Infinity" id="SVGID_1_">
   <stop stop-color="#FFC3B0" offset="0.0051"/>
   <stop stop-color="#E8897B" offset="1"/>
  </linearGradient>
 </defs>
 <g>
  <title>background</title>
  <rect fill="none" id="canvas_background" height="402" width="582" y="-1" x="-1"/>
 </g>
 <g>
  <title>Layer 1</title>
  <path id="svg_3" fill="#b4b5ba" d="m202.549,270.612c0,0 -57.87,11.671 -105.44,70.462c-4.968,6.141 -3.905,15.23 2.475,19.887c12.189,8.895 31.725,28.734 50.624,71.688c0,0 24.088,61.664 112.146,68.486c15.557,1.205 31.28,-1.234 45.438,-7.797c27.531,-12.764 69.115,-43.502 74.579,-113.742c1.179,-15.167 -1.207,-30.482 -7.755,-44.215c-14.913,-31.276 -56.448,-74.162 -172.067,-64.769z"/>
  <path id="svg_4" fill="#727272" d="m382.37,379.596c1.18,-15.167 -1.207,-30.482 -7.755,-44.215c-13.178,-27.639 -47.188,-64.318 -134.701,-65.999l-7.499,18.492l-9.475,42.653c0,0 15.383,54.836 83.118,59.657c0,0 40.465,4.29 17.373,94.568c25.465,-16.291 54.442,-47.331 58.939,-105.156z"/>
  <circle id="svg_5" r="10.795" fill="#1c1918" cy="342.238994" cx="148.198022"/>
  <path id="svg_7" fill="#C66760" d="m338.781367,199.032468l5.893,0c10.605,0 19.202,-8.597 19.202,-19.203l0,0c0,-10.605 -8.597,-19.203 -19.202,-19.203l-5.893,0l0,38.406z"/>
  <polygon id="svg_11" points="356.41828167438507,125.15799713134766 353.7632828950882,265.00799560546875 191.78726971149445,265.00799560546875 194.5082780122757,126.47000122070312 " fill="url(#SVGID_1_)"/>
  <circle id="svg_45" r="10.795" fill="#1c1918" cy="359.693527" cx="192.561624"/>
  <path id="svg_12" fill="#9b9ca0" d="m117.210456,331.16581c11.916,1.119 28.161,4.472 42.945,13.711c19.776,12.357 41.814,20.579 65.045,22.613c41.914,3.67 103.271,2.407 147.884,-26.887c5.031,-3.305 6.285,-10.151 2.851,-15.096c-12.515,-18.015 -51.096,-55.957 -154.238,-56.393c0,0 -63.169,3.239 -109.33,47.92c-5.075,4.913 -2.188,13.472 4.843,14.132z"/>
  <path id="svg_14" fill="#2b1b1c" d="m193.285272,116.430734l-1.707,159.302c-0.629,58.676 46.763,106.578 105.442,106.578l0,0c31.338,0 56.742,-25.404 56.742,-56.742l0,-100.412l-92.583,0.475l-25.869,14.341c0,0 -34.902,-13.392 -34.902,-67.518l0,-56.025l-7.123,0l0,0.001z"/>
  <path id="svg_15" fill="#E8897B" d="m322.111,157.217l0,107.791l30.925,0l2.655,-139.85l-78.545,0.637c7.067,0.828 18.379,2.643 27.92,6.411c10.277,4.057 17.045,13.962 17.045,25.011z"/>
  <path id="svg_16" fill="#1e0e0f" d="m323.374544,269.305735l0,49.309c0,13.898 -2.73,27.743 -8.674,40.307c-3.8,8.031 -9.242,16.411 -16.884,23.387c31.306,-0.037 56.674,-25.424 56.674,-56.739l0,-100.413l-14.55,0.075l-47.299,6.119c0.001,0 29.168,0.816 30.733,37.955z"/>
  <path id="svg_17" fill="#773E41" d="m192.018,189.624c0,0 6.586,-24.162 29.779,-31.28c13.558,-4.161 24.319,-15.881 22.938,-31.864l-52.176,0l-0.541,63.144z"/>
  <circle id="svg_18" r="7.924" fill="#3d301f" cy="162.399728" cx="278.113"/>
  <path stroke="null" id="svg_20" fill="#4f3c3d" d="m383.988767,254.063685c-7.994759,-2.908932 -17.506705,-9.251538 -23.824641,-22.967324c-7.627467,-16.561686 -20.877223,-27.574971 -35.571486,-31.259198c-8.337392,-2.09109 -46.912104,-2.09109 -55.248197,0c-14.694263,3.685802 -27.945317,14.699087 -35.572784,31.259198c-6.317936,13.715787 -15.829882,20.058392 -23.823344,22.967324c-7.110923,2.587468 -8.781256,14.69436 -2.869547,20.394038c12.024585,11.594756 27.08614,12.340111 37.95434,10.776915c7.395152,-1.063667 14.272462,-5.821015 18.72928,-13.482568c12.744892,-21.903657 53.670011,-21.903657 66.413605,0c4.458116,7.661553 11.33283,12.418901 18.730578,13.482568c10.8682,1.56162 25.929755,0.817842 37.95434,-10.776915c5.909113,-5.701254 4.23878,-17.808146 -2.872143,-20.394038z"/>
  <path id="svg_21" fill="#fcfdff" d="m267.383911,131.226432c0,-0.943 0,-73.867 0,-73.867s-68.524,-1.551 -75.753,71.048l75.753,2.819z"/>
  <path id="svg_22" fill="#b4b5ba" d="m302.290006,58.810976c0,0 59.959,12.261 54.93,69.783l-54.93,0l0,-69.783z"/>
  <path id="svg_23" fill="#d0d2d8" d="m202.907095,121.63471l62.295,2.318c0,-0.62 0,-32.352 0,-54.019c-4.764,19.059 -19.422,43.894 -62.295,51.701z"/>
  <path stroke="null" transform="rotate(-90.57576751708984 209.1313934326172,201.05825805664062) " id="svg_33" fill="#b4b5ba" d="m260.094472,224.31809c0,-0.593858 0,-46.518042 0,-46.518042s-92.199499,-0.976749 -101.926167,44.742766l101.926167,1.775277z"/>
  <path id="svg_25" fill="#d0d2d8" d="m358.530551,157.838343l-168.665,0c-5.209,0 -9.433,-4.223 -9.433,-9.433l0,-17.518c0,-5.209 4.224,-9.433 9.433,-9.433l168.665,0c5.209,0 9.433,4.223 9.433,9.433l0,17.518c0,5.21 -4.224,9.433 -9.433,9.433z"/>
  <path id="svg_24" fill="#ffffff" d="m305.926367,129.861976l-42.46,0l0,-72.82c0,-3.939 3.193,-7.132 7.133,-7.132l28.195,0c3.939,0 7.132,3.193 7.132,7.132l0,72.82z"/>
  <path stroke="null" transform="rotate(-2.738391876220703 350.33062744140267,245.82171630859412) " id="svg_27" fill="#382728" d="m385.68313,253.399995c-8.375072,-3.006201 -18.339505,-9.560892 -24.957988,-23.73531c-4.819745,-10.323028 -11.805317,-18.515984 -19.950619,-24.262942c0.46362,31.216614 -16.338189,45.107674 -32.568971,51.227557c8.855008,2.507882 16.640018,7.484561 21.102192,15.050548c4.67155,7.917741 11.871937,12.834166 19.621598,13.9334c11.385204,1.613838 27.163242,0.845189 39.759841,-11.137275c6.192931,-5.891894 4.443139,-18.403618 -3.006053,-21.075978z"/>
  <circle id="svg_28" r="3.83" fill="#E8897B" cy="193.454" cx="308.578"/>
  <circle id="svg_1" r="6.454" fill="#b4b5ba" cy="82.636225" cx="284.696367"/>
  <path stroke="null" transform="rotate(-180 315.60540771484375,173.15863037109372) " id="svg_31" fill="#b4b5ba" d="m320.47181,198.95283l-9.73277,0l0,-46.98652c0,-2.54161 0.73191,-4.60187 1.63504,-4.60187l6.46292,0c0.9029,0 1.63481,2.06026 1.63481,4.60187l0,46.98652z"/>
  <path stroke="null" transform="rotate(-180 309.0599670410156,172.43141174316403) " id="svg_32" fill="#d0d2d8" d="m313.926355,198.225553l-9.73277,0l0,-46.98652c0,-2.54161 0.73191,-4.60186 1.63504,-4.60186l6.46292,0c0.90291,0 1.63481,2.06025 1.63481,4.60186l0,46.98652z"/>
  <circle id="svg_44" r="7.924" fill="#3d301f" cy="162.399728" cx="340.65841"/>
  <path id="svg_26" fill="#9b9ca0" d="m369.418095,130.888343c0,-5.209 -4.224,-9.433 -9.433,-9.433l-39.191,0c-1.293,9.151 -9.465,33.752 -44.131,36.383l83.322,0c5.209,0 9.433,-4.223 9.433,-9.433l0,-17.517z"/>
  <circle id="svg_34" r="6.454" fill="#b4b5ba" cy="108.090753" cx="284.696367"/>
  <circle id="svg_36" r="6.454" fill="#b4b5ba" cy="142.999819" cx="284.696367"/>
  <circle id="svg_37" r="6.454" fill="#b4b5ba" cy="142.999819" cx="246.15094"/>
  <circle id="svg_38" r="6.454" fill="#b4b5ba" cy="142.999819" cx="209.787329"/>
  <circle id="svg_39" r="6.454" fill="#b4b5ba" cy="142.999819" cx="319.605433"/>
  <circle id="svg_40" r="6.454" fill="#b4b5ba" cy="142.999819" cx="347.241777"/>
 </g>
</svg>