<svg width="512" height="512" xmlns="http://www.w3.org/2000/svg">
 <defs>
  <linearGradient y2="Infinity" y1="Infinity" x2="Infinity" x1="Infinity" id="SVGID_1_">
   <stop stop-color="#FFC3B0" offset="0.0051"/>
   <stop stop-color="#E8897B" offset="1"/>
  </linearGradient>
  <linearGradient y2="Infinity" y1="Infinity" x2="Infinity" x1="Infinity" id="SVGID_2_">
   <stop stop-color="#FFC3B0" offset="0.0051"/>
   <stop stop-color="#E8897B" offset="1"/>
  </linearGradient>
  <linearGradient y2="Infinity" y1="Infinity" x2="Infinity" x1="Infinity" id="SVGID_3_">
   <stop stop-color="#FFC3B0" offset="0.0051"/>
   <stop stop-color="#E8897B" offset="1"/>
  </linearGradient>
  <linearGradient y2="Infinity" y1="Infinity" x2="Infinity" x1="Infinity" id="SVGID_4_">
   <stop stop-color="#FFC3B0" offset="0.0051"/>
   <stop stop-color="#E8897B" offset="1"/>
  </linearGradient>
 </defs>
 <g>
  <title>background</title>
  <rect fill="none" id="canvas_background" height="402" width="582" y="-1" x="-1"/>
 </g>
 <g>
  <title>Layer 1</title>
  <path id="svg_1" fill="#E8897B" d="m430.847,368.385c0,0 0.435,45.119 -9.979,84.6l-40.478,-90.674c0.001,0 35.272,-3.471 50.457,6.074z"/>
  <path id="svg_2" fill="url(#SVGID_1_)" d="m226.504,469.471c0,0 9.466,26.766 41.139,33.865c11.453,2.566 23.517,1.599 34.027,-3.629c6.703,-3.334 13.931,-8.713 19.065,-17.361c1.368,-2.304 4.662,-2.29 6.128,-0.047c3.338,5.109 9.595,12.443 20.099,17.391c15.135,7.129 32.739,5.976 47.389,-2.105c11.136,-6.144 23.337,-17.162 28.02,-36.715c2.317,-9.675 2.08,-19.761 0.024,-29.493c-3.588,-16.981 -25.569,-50.735 -42.004,-69.065c0,-0.001 -84.471,19.522 -153.887,107.159z"/>
  <path stroke="null" id="svg_3" fill="#7d4fa3" d="m425.25214,431.18452c-0.145,-0.683 -3.65522,-2.77728 -3.33014,-1.97952c-16.443,-0.561 -57.639,-6.938 -63.23,-55.978c-34.713,13.467 -88.924,41.622 -132.188,96.243c0,0 9.466,26.766 41.139,33.865c92.2572,5.90058 112.058,2.329 126.707,-5.751c11.137,-6.144 23.338,-17.162 28.021,-36.715c2.317,-9.675 4.93614,-19.95148 2.88114,-29.68448z"/>
  <path id="svg_4" fill="#6c4a91" d="m426.395,433.08929c-0.145,-0.683 0.25843,-4.29215 -4.473,-3.88429c-8.816,-0.301 -24.747,-2.283 -38.492,-11.609c2.748,18.002 -41.41805,67.06734 -72.62745,88.86349c7.51886,1.03941 23.23128,-1.84098 27.22328,0.03902c15.136,7.129 41.67517,-0.83351 56.32417,-8.91351c11.137,-6.144 23.338,-17.162 28.021,-36.715c2.317,-9.676 6.079,-18.04771 4.024,-27.78071z"/>
  <path transform="rotate(113.50818634033203 239.87960815429693,470.8933715820312) " id="svg_6" fill="#6b4a91" d="m263.50689,438.954468c-2.164,-2.676 -6.408,-1.409 -6.969,1.986c-6.715,40.685 -40.844,53.976 -50.426,57.228c3.971,1.943 8.397,3.61 13.446,4.742c11.453,2.566 23.517,1.599 34.027,-3.629c5.94,-2.955 12.285,-7.527 17.229,-14.546c2.039,-5.19 2.988,-10.839 2.813,-16.542c-0.441,-14.335 -5.712,-23.789 -10.12,-29.239z"/>
  <path id="svg_7" fill="#FFE19F" d="m321.305471,176.590763c0,0 -15.436,-34.49 -57.135,-29.359c-16.76,2.063 -32.361,9.947 -44.393,21.795c-13.569,13.362 -28.887,36.135 -27.494,70.168c0.135,3.3 0.541,6.565 1.012,9.834c1.518,10.535 5.246,34.716 9.257,48.014c1.213,4.023 1.973,8.144 2.241,12.338l0.046,0.719c1.446,22.653 -11.192,44.322 -32.197,52.931c-7.658,3.139 -16.976,5.148 -28.274,5.126c-8.545,-0.017 -13.556,9.452 -8.902,16.62c6.114,9.416 18.015,20.2 41.178,25.992c15.427,3.856 31.786,3.43 46.5,-2.6c8.384,-3.436 16.973,-8.734 22.314,-16.854c0,0 1.802,13.695 16.064,15.034c6.605,0.62 13.068,-1.904 18.195,-6.116c7.274,-5.976 17.776,-17.241 19.155,-33.253c-0.001,0.001 -42.732,-95.312 22.433,-190.389z"/>
  <path transform="rotate(95.29177856445312 251.1150360107422,233.60211181640625) " id="svg_8" fill="#D8A648" d="m225.711532,256.431059c2.216,3.632 6.236,7.476 13.457,8.154c6.605,0.62 13.068,-1.905 18.195,-6.116c7.274,-5.976 17.776,-17.241 19.155,-33.253c0,0 -3.754,-8.426 -7.341,-22.69c-5.055,22.49 -16.951,45.46 -43.466,53.905z"/>
  <path id="svg_9" fill="#7ace6f" d="m232.854,474.801c23.146,-24.678 110.114,-111.665 180.761,-105.685c5.275,0.446 10.422,2.226 14.594,5.485c0.281,0.221 0.562,0.447 0.838,0.682c2.541,2.154 6.401,1.156 7.664,-1.926c4.877,-11.903 8.588,-35.635 -36.914,-39.275c0,0 5.23,-25.271 -43.648,-20.788c0,0 -5.265,-38.122 -68.853,-39.442c0,0 -78.534,-1.727 -67.393,41.888c0,0 -79.829,16.626 -84.49,74.063c-0.165,2.036 -0.017,4.071 0.322,6.085c2.361,14.01 15.515,65.923 82.235,83.283c5.377,1.397 11.084,-0.317 14.884,-4.37z"/>
  <path id="svg_10" fill="#4ba045" d="m399.797,334.082c0,0 5.23,-25.272 -43.648,-20.788c0,0 -0.006,-0.036 -0.018,-0.105c-0.002,-0.016 -0.008,-0.046 -0.012,-0.065c-0.011,-0.066 -0.023,-0.138 -0.043,-0.243c-0.011,-0.054 -0.027,-0.13 -0.04,-0.192c-0.02,-0.096 -0.037,-0.183 -0.063,-0.299c-0.021,-0.096 -0.05,-0.213 -0.075,-0.32c-0.027,-0.117 -0.052,-0.224 -0.085,-0.355c-0.032,-0.125 -0.073,-0.269 -0.11,-0.407c-0.038,-0.141 -0.073,-0.274 -0.118,-0.429c-0.045,-0.159 -0.102,-0.336 -0.154,-0.509c-0.048,-0.156 -0.092,-0.306 -0.146,-0.472c-0.062,-0.189 -0.134,-0.395 -0.204,-0.598c-0.061,-0.176 -0.118,-0.346 -0.186,-0.531c-0.077,-0.213 -0.166,-0.437 -0.253,-0.66c-0.074,-0.193 -0.146,-0.383 -0.229,-0.584c-0.097,-0.239 -0.205,-0.488 -0.313,-0.737c-0.089,-0.205 -0.176,-0.407 -0.271,-0.62c-0.119,-0.264 -0.25,-0.535 -0.381,-0.809c-0.104,-0.214 -0.205,-0.426 -0.314,-0.645c-0.143,-0.284 -0.297,-0.574 -0.452,-0.866c-0.12,-0.225 -0.239,-0.448 -0.366,-0.677c-0.168,-0.3 -0.346,-0.605 -0.527,-0.912c-0.137,-0.232 -0.275,-0.464 -0.421,-0.7c-0.194,-0.316 -0.401,-0.636 -0.612,-0.958c-0.154,-0.237 -0.313,-0.475 -0.477,-0.716c-0.222,-0.325 -0.455,-0.653 -0.693,-0.983c-0.179,-0.246 -0.359,-0.493 -0.547,-0.742c-0.251,-0.331 -0.512,-0.664 -0.779,-0.999c-0.201,-0.251 -0.406,-0.503 -0.618,-0.756c-0.283,-0.339 -0.576,-0.679 -0.878,-1.019c-0.222,-0.25 -0.448,-0.499 -0.68,-0.75c-0.32,-0.346 -0.649,-0.692 -0.99,-1.039c-0.242,-0.246 -0.492,-0.492 -0.746,-0.739c-0.357,-0.349 -0.722,-0.696 -1.102,-1.044c-0.268,-0.246 -0.545,-0.49 -0.824,-0.734c-0.395,-0.347 -0.795,-0.691 -1.213,-1.035c-0.295,-0.242 -0.602,-0.484 -0.908,-0.726c-0.434,-0.341 -0.873,-0.681 -1.33,-1.019c-0.32,-0.236 -0.654,-0.471 -0.986,-0.704c-0.479,-0.339 -0.963,-0.675 -1.467,-1.007c-0.345,-0.227 -0.705,-0.448 -1.061,-0.672c-0.526,-0.33 -1.055,-0.66 -1.607,-0.982c-0.371,-0.217 -0.76,-0.428 -1.143,-0.641c-0.575,-0.319 -1.15,-0.639 -1.753,-0.949c-0.399,-0.206 -0.82,-0.404 -1.232,-0.606c-0.624,-0.306 -1.245,-0.61 -1.898,-0.905c-0.429,-0.193 -0.882,-0.379 -1.323,-0.566c-0.676,-0.289 -1.35,-0.578 -2.057,-0.855c-0.451,-0.177 -0.93,-0.343 -1.395,-0.515c-0.738,-0.272 -1.473,-0.546 -2.244,-0.806c-0.466,-0.156 -0.96,-0.299 -1.438,-0.449c-0.812,-0.256 -1.616,-0.514 -2.464,-0.753c-0.471,-0.134 -0.972,-0.251 -1.454,-0.378c-0.896,-0.237 -1.785,-0.477 -2.721,-0.694c-0.456,-0.106 -0.94,-0.196 -1.405,-0.297c-1.004,-0.218 -2.002,-0.438 -3.051,-0.633c-0.365,-0.067 -0.757,-0.12 -1.127,-0.185c-4.182,-0.73 -8.7,-1.279 -13.621,-1.586c-0.082,-0.004 -0.156,-0.014 -0.238,-0.019l0,0c-1.938,-0.116 -3.93,-0.202 -5.987,-0.244c0,0 -8.351,-0.175 -19.203,1.087c-0.169,0.255 -0.337,0.509 -0.501,0.762c-15.586,24.063 0.995,56.514 29.645,57.589c12.379,0.464 24.829,-3.069 35.091,-7.284c2.898,2.801 6.636,4.602 10.712,4.935c10.641,0.868 28.379,4.169 26.09,16.575c-0.665,3.604 -2.964,6.693 -5.956,8.811c-8.8,6.225 -33.491,24.895 -52.429,50.387c32.427,-22.494 69.75,-40.601 103.344,-37.555c4.949,0.447 9.754,2.146 13.723,5.138c0.416,0.313 0.83,0.642 1.236,0.987c2.541,2.155 6.401,1.156 7.664,-1.926c4.873,-11.907 8.584,-35.637 -36.918,-39.278z"/>
  <path id="svg_11" fill="#4ba045" d="m274.037,435.35c-51.703,21.818 -104.111,2.836 -126.889,-7.918c10.885,19.372 31.584,41.529 70.822,51.738c5.376,1.398 11.083,-0.316 14.884,-4.369c7.675,-8.184 22.395,-23.227 41.183,-39.451z"/>
  <path id="svg_12" fill="url(#SVGID_2_)" d="m295.459,323.076l0,0c-18.24,0 -33.027,-14.786 -33.027,-33.027l0,-56.647l66.054,0l0,56.647c-0.001,18.241 -14.787,33.027 -33.027,33.027z"/>
  <path id="svg_13" fill="#E8897B" d="m263.977,233.401c9.798,14.028 36.355,50.427 56.595,78.065c4.925,-5.768 7.914,-13.238 7.914,-21.418l0,-56.647l-64.509,0z"/>
  <path id="svg_14" fill="url(#SVGID_3_)" d="m266.359,233.614c0,0 27.863,42.187 75.746,60.264c4.684,1.769 9.968,0.008 12.709,-4.181c9.154,-13.99 28.83,-48.287 35.592,-93.483c0.588,-3.928 -0.108,-7.949 -1.844,-11.522l-48.788,-100.442l-24.894,1.464l-45.396,48.323l-3.125,99.577z"/>
  <path stroke="null" id="svg_15" fill="#202072" d="m323.794132,200.446l0,0c-3.949478,0 -7.151543,-2.990299 -7.151543,-6.678582l0,-14.017955c0,-3.689523 3.202065,-6.678582 7.151543,-6.678582l0,0c3.952134,0 7.152871,2.990299 7.152871,6.678582l0,14.017955c-0.001328,3.688283 -3.202065,6.678582 -7.152871,6.678582z"/>
  <path id="svg_16" fill="#E8897B" d="m346.562,215.564l14.462,0c2.279,0 3.799,2.422 2.729,4.434c-1.684,3.165 -4.723,6.864 -9.732,6.864c0,0 -7.139,-0.114 -10.274,-7.02c-0.909,-1.996 0.62,-4.278 2.815,-4.278z"/>
  <path id="svg_17" fill="#E8897B" d="m339.774,84.25l-8.674,0.51l-2.615,14.65c-1.935,1.177 -14.225,57.654 31.756,91.865c4.124,3.068 6.733,7.76 6.965,12.895c0.774,17.198 -1.032,56.753 -29.493,87.959c1.484,0.621 2.989,1.221 4.516,1.795c4.643,1.748 9.861,-0.063 12.577,-4.214c9.151,-13.981 28.837,-48.287 35.601,-93.496c0.588,-3.929 -0.108,-7.949 -1.844,-11.522l-48.789,-100.442z"/>
  <path id="svg_18" fill="#FFE19F" d="m300.231,119.64l23.783,-20.303c0,0 -2.29,64.879 63.353,96.937c0,0 -1.527,20.608 -4.58,31.294c0,0 33.584,0.763 32.059,-47.323c0,0 47.323,-83.961 -50.377,-138.154c0,0 -58.773,-65.643 -122.125,6.106l-9.708,14.432c-14.468,21.506 -22.602,46.644 -23.392,72.552c-1.245,40.859 6.083,96.697 52.792,109.945c5.836,1.655 11.603,-2.926 11.603,-8.991l0,-41.387c0,0 33.608,-18.821 21.979,-60.246c-1.52,-5.409 0.341,-11.214 4.613,-14.862z"/>
  <path id="svg_19" fill="#EDC063" d="m373.508,47.449c14.416,18.108 43.833,64.29 19.336,115.967c-3.353,7.072 -10.084,11.922 -17.884,12.576c-4.974,0.417 -11.315,0.176 -18.812,-1.575c8.167,8.052 18.378,15.586 31.219,21.857c0,0 -1.527,20.609 -4.58,31.295c0,0 33.584,0.763 32.059,-47.324c0,0 44.299,-78.607 -41.338,-132.796z"/>
  <path stroke="null" id="svg_22" fill="url(#SVGID_4_)" d="m201.511071,79.944351c-2.855839,-2.549428 -6.569711,1.091594 -5.620966,5.500723c3.977471,18.492975 11.413752,53.743204 15.661226,78.17867c0,0 6.223937,41.557535 34.327699,51.068371c6.651886,2.251591 13.382744,-3.544119 14.505443,-12.584685c0.869772,-6.999884 1.211277,-16.187231 -0.303086,-26.785386c-1.205941,-8.433492 -3.834466,-16.348263 -7.248453,-23.624608c-7.518456,-16.0319 -24.667364,-47.958895 -51.321864,-71.753085z"/>
  <path stroke="null" id="svg_23" fill="#E8897B" d="m226.775061,146.511058c7.04617,8.437486 15.094364,21.697376 16.443308,39.237922c0.271136,3.530811 -3.617393,5.904177 -6.519054,3.965928c-6.094667,-4.072558 -14.008136,-11.866827 -12.955589,-24.504138c0,0 0.1903,-7.341954 -2.12025,-15.954863c-0.831933,-3.104293 3.107118,-5.195607 5.151585,-2.744849z"/>
  <path id="svg_24" fill="#45a04f" d="m237.317,336.871c5.812,8.581 17.817,20.152 41.415,23.967c3.829,0.619 3.899,6.042 0.077,6.697c-7.3,1.25 -16.774,1.368 -27.632,-2.02c-8.104,-2.527 -14.928,-8.273 -17.925,-16.216c-1.119,-2.966 -1.958,-6.446 -2.162,-10.428c-0.175,-3.433 4.3,-4.848 6.227,-2z"/>
 </g>
</svg>