<?xml version="1.0" ?><svg data-name="Layer 1" id="Layer_1" viewBox="0 0 24 24" xmlns="http://www.w3.org/2000/svg"><defs><style>.cls-1{fill:#b47250;}</style></defs><path class="cls-1" d="M11.86,21.5l-1-.39c.07-1.16.15-2.34.23-3.52l0-.34.21,0c.75-.09,1.14-.18,1.24-.39.23-.5-.39-1.24-.67-1.51l-.18-.16a1.89,1.89,0,0,0-.28-.17l-.05,0-.1-.05h0l-.11-.06-.35-.16a2.2,2.2,0,0,0-.65-.21H10a.11.11,0,0,0,0,0c-.05.06,0,.14,0,.45,0,.08,0,.11,0,.19s0,.19,0,.28a2.05,2.05,0,0,1-.26.67.9.9,0,0,1-.74.22,1.26,1.26,0,0,0,.59.9.92.92,0,0,0,.43.11A13.86,13.86,0,0,0,10,18.76a13.22,13.22,0,0,0,.46,2.35c-.15.24-.21.51-.1.65a.75.75,0,0,0,.7.13.81.81,0,0,1,.31,0,4,4,0,0,0,.51.08h.6a.22.22,0,0,0,.23-.25Z"/><path class="cls-1" d="M18.92,6.9l-.09-.14,0-.06a1.11,1.11,0,0,0-.22-.18A4.25,4.25,0,0,0,18,6.19a8.46,8.46,0,0,0-4.49-.66A8.72,8.72,0,0,0,11.66,6a3.35,3.35,0,0,0-1.3-.95L9,4.53a7.65,7.65,0,0,0,1.09,0,7.47,7.47,0,0,0,1.49-.26c-.05.38-.06.8.17,1s.43.17.95-.06.68.22,1.31.14a5,5,0,0,0,.61-.15c.59.41.78-.11.78-.11L11.74,3.79A11.5,11.5,0,0,0,7.45,2.06,5.64,5.64,0,0,0,6,2.18c-.43.08-.64.16-.77.34a1,1,0,0,0-.1.86A6.14,6.14,0,0,0,8.36,7.45a7.14,7.14,0,0,0,1.28.45,5.08,5.08,0,0,0-1.18,2.48,3.12,3.12,0,0,0,.19,2.22,2.53,2.53,0,0,0,.62.64l0,.06a3.72,3.72,0,0,1,.32,1.51c0,.24-.2.27-.38.29s-.33,0-.39.24a.84.84,0,0,0,.12.81c.11.12.54,0,.62-.2a2,2,0,0,0,.16-1.37c0-.16,0-.28,0-.33s.11,0,.25,0h.07c.22.05.47.1.63.15a1.51,1.51,0,0,1,.55.3v-.08c0-.07,0-.14,0-.22s0-.13,0-.2a2.5,2.5,0,0,0,.12-.32,5.1,5.1,0,0,0-.09-2.64,4.2,4.2,0,0,1-.22-1,3.19,3.19,0,0,1,.07-.84,3.2,3.2,0,0,0,1.85,0c.84-.3,1-.82,2.09-1.41a3.28,3.28,0,0,1,1.67-.51c.05.11-.86.43-1.53,1.18a4.44,4.44,0,0,0-1,3c-.51-.26-.8-.25-1-.14s-.29.29-.29.77-.46.43-.65,1a3.34,3.34,0,0,0-.15.56c-.61.23-.26.65-.26.66a31.72,31.72,0,0,0,2.63-2.27,17.13,17.13,0,0,0,1.75-1.28,10.92,10.92,0,0,0,1.2-1.13C19.05,8,19,7,18.92,6.9Z"/></svg>