<?xml version="1.0" ?><svg xmlns="http://www.w3.org/2000/svg" xmlns:xlink="http://www.w3.org/1999/xlink" version="1.1" viewBox="0 0 512 512" style="enable-background:new 0 0 512 512;" xml:space="preserve"><g id="_x34_8_x2C__Magnet_x2C__Engagement_x2C__Attractive_x2C__Attraction_x2C__Appeal"><g><path d="M461,161h-80c-5.522,0-10,4.478-10,10v125c0,63.411-51.589,115-115,115s-115-51.589-115-115V171c0-5.522-4.477-10-10-10    H51c-5.523,0-10,4.478-10,10v125c0,118.841,96.176,215,215,215c118.84,0,215-96.176,215-215V171C471,165.477,466.523,161,461,161z     M61,296v-45h60v45c0,71.076,55.213,129.495,125,134.629v60.117C143.105,485.524,61,400.17,61,296z M266,490.747v-60.117    c69.788-5.135,125-63.553,125-134.629v-45h60v45C451,400.17,368.895,485.524,266,490.747z"/><path d="M248.929,126.494c3.904,3.903,10.238,3.904,14.142,0l49.126-49.125c17.485-17.501,17.47-45.779-0.003-63.268    c-15.243-15.242-38.836-17.166-56.187-5.767c-16.921-11.165-40.589-9.846-56.202,5.769c-17.436,17.443-17.436,45.825,0.001,63.269    L248.929,126.494z M213.95,28.244c9.654-9.655,25.296-9.676,34.982,0.003c3.906,3.901,10.236,3.9,14.139-0.003    c9.644-9.643,25.338-9.643,34.978-0.003c9.67,9.678,9.667,25.316,0.003,34.988L256,105.28    c-4.346-4.35,15.659,15.659-42.064-42.064C204.309,53.569,204.313,37.884,213.95,28.244z"/><path d="M111,131c5.523,0,10-4.478,10-10V51c0-5.522-4.477-10-10-10c-5.523,0-10,4.478-10,10v70C101,126.522,105.477,131,111,131z    "/><path d="M71,131c5.523,0,10-4.478,10-10V81c0-5.522-4.477-10-10-10c-5.523,0-10,4.478-10,10v40C61,126.522,65.477,131,71,131z"/><path d="M401,131c5.522,0,10-4.478,10-10V51c0-5.522-4.478-10-10-10s-10,4.478-10,10v70C391,126.522,395.478,131,401,131z"/><path d="M441,131c5.522,0,10-4.478,10-10V81c0-5.522-4.478-10-10-10s-10,4.478-10,10v40C431,126.522,435.478,131,441,131z"/></g></g><g id="Layer_1"/></svg>