<?xml version="1.0" ?><!DOCTYPE svg  PUBLIC '-//W3C//DTD SVG 1.1//EN'  'http://www.w3.org/Graphics/SVG/1.1/DTD/svg11.dtd'><svg height="32px" style="fill-rule:evenodd;clip-rule:evenodd;stroke-linejoin:round;stroke-miterlimit:2;" version="1.1" width="32px" xml:space="preserve" xmlns="http://www.w3.org/2000/svg" xmlns:serif="http://www.serif.com/" xmlns:xlink="http://www.w3.org/1999/xlink"><g id="Layer2"><path d="M6.385,10.908l-1.446,1.446c-0.281,0.281 -0.439,0.662 -0.439,1.06l0,6.586c0,0.104 0.032,0.201 0.087,0.282l1.77,2.654l-1.581,1.58c-0.722,0.108 -1.276,0.731 -1.276,1.483l0,0.001c-0,0.828 0.672,1.5 1.5,1.5l23,-0c0,-0 0.5,-0.044 0.5,-0.515l0,-0.985c0,-0.828 -0.672,-1.5 -1.5,-1.5l-11.5,0l0,-0.882c0,-0.568 -0.321,-1.088 -0.829,-1.342c-0,0 -3.375,-1.687 -3.375,-1.687l-0.796,-0.796l0,-2.984l0.704,0.352c0.523,0.262 1.151,0.195 1.608,-0.17c1.266,-1.013 4.5,-3.601 4.5,-3.601c0.166,-0.132 0.23,-0.355 0.16,-0.556c-0.07,-0.2 -0.26,-0.334 -0.472,-0.334l-0.5,-0l0,-0.11c-0,0 0.864,-0.216 0.864,-0.216c0.668,-0.166 1.136,-0.766 1.136,-1.455c0,-0.724 0,-1.691 0,-1.691c0,-0.173 -0.089,-0.333 -0.236,-0.425c-0.147,-0.091 -0.33,-0.1 -0.485,-0.024c-0,0 -2.343,1.155 -3.442,1.698c-0.513,0.252 -0.837,0.774 -0.837,1.345l0,0.878l-0.5,-0c-0.133,-0 -0.26,0.053 -0.354,0.146l-0.74,0.741c-0,-0 -1.533,-0.8 -1.533,-0.8l-0.823,-1.624c0.579,-0.456 0.95,-1.162 0.95,-1.957l0,-4.006c0,-0.276 -0.224,-0.5 -0.5,-0.5l-3,0c-0.828,0 -1.5,0.672 -1.5,1.5l0,0.992l0,2.008c0,0.764 0.344,1.449 0.885,1.908Zm20.615,14.592l-22.001,0c-0.276,0 -0.499,0.223 -0.499,0.499c0,0 0,0.001 0,0.001c-0,0.276 0.224,0.5 0.5,0.5l22.5,-0l0,-0.5c0,-0.276 -0.224,-0.5 -0.5,-0.5Zm-12.5,-1l0,-0.882c0,-0.189 -0.107,-0.362 -0.276,-0.447l-3.448,-1.724c-0.048,-0.024 -0.092,-0.055 -0.13,-0.093l-0.853,-0.854l-3.859,-0l1.334,2l2.732,-0c0.276,-0 0.5,0.224 0.5,0.5c-0,0.276 -0.224,0.5 -0.5,0.5l-2.793,-0l-1,1l8.293,0Zm-7.195,-13.098l-1.659,1.659c-0.093,0.093 -0.146,0.221 -0.146,0.353c0,0 0,6.086 -0,6.086c-0,-0 4,-0 4,-0l0,-3.5c0,-0.173 0.09,-0.334 0.237,-0.425c0.148,-0.091 0.332,-0.1 0.487,-0.022c-0,-0 1.427,0.714 1.427,0.714c0.175,0.087 0.384,0.065 0.536,-0.057c0,-0 3.388,-2.71 3.388,-2.71c-0,-0 -2.368,-0 -2.368,-0l-0.853,0.854c-0.155,0.154 -0.392,0.19 -0.585,0.089l-2,-1.044c-0.093,-0.048 -0.168,-0.124 -0.215,-0.217l-0.897,-1.769c-0.209,0.057 -0.43,0.087 -0.657,0.087c-0.241,-0 -0.474,-0.034 -0.695,-0.098Zm8.195,1.098l0,-0.5c0,-0.229 0.156,-0.429 0.379,-0.485l1.242,-0.311c0.223,-0.055 0.379,-0.255 0.379,-0.485l-0,-0.887l-2.721,1.341c-0.171,0.085 -0.279,0.259 -0.279,0.449l0,0.878l1,-0Zm-6,-5l-3,0l0,1.5c0,0.828 0.672,1.5 1.5,1.5c0.827,-0 1.5,-0.667 1.5,-1.494l0,-1.506Zm-3,-1l3,-0c0,-0 0,-1 -0,-1c-0,0 -2.5,0 -2.5,0c-0.276,0 -0.5,0.224 -0.5,0.5l0,0.5Z" id="Pray"/></g></svg>