<svg width="512" height="512" xmlns="http://www.w3.org/2000/svg">

 <g>
  <title>background</title>
  <rect fill="none" id="canvas_background" height="514" width="514" y="-1" x="-1"/>
 </g>
 <g>
  <title>Layer 1</title>
  <path id="svg_1" d="m250.911515,154.528194a13.1256,13.1256 0 0 0 13.125,-13.125l0,-43.75a13.125,13.125 0 1 0 -26.25,0l0,43.75a13.1256,13.1256 0 0 0 13.125,13.125z"/>
  <path id="svg_2" d="m294.217215,172.468294a13.0826,13.0826 0 0 0 9.28,-3.8453l30.9409,-30.9368a13.1236,13.1236 0 0 0 -18.56,-18.56l-30.9412,30.9369a13.1251,13.1251 0 0 0 9.28,22.4048l0.0003,0.0004z"/>
  <path id="svg_3" d="m299.036515,202.653194a13.1256,13.1256 0 0 0 13.125,13.125l43.75,0a13.125,13.125 0 1 0 0,-26.25l-43.75,0a13.1256,13.1256 0 0 0 -13.125,13.125z"/>
  <path id="svg_4" d="m198.317515,168.622994a13.1236,13.1236 0 1 0 18.56,-18.5595l-30.933,-30.9369a13.1236,13.1236 0 0 0 -18.56,18.56l30.933,30.9364z"/>
  <path id="svg_5" d="m145.911515,215.778194l43.75,0a13.125,13.125 0 0 0 0,-26.25l-43.75,0a13.125,13.125 0 1 0 0,26.25z"/>
  <path id="svg_6" d="m426.4907,452.8622l-102.2913,-177.1747l-136.3983,0l-102.2911,177.1747a13.1324,13.1324 0 0 0 11.3733,19.7l318.2341,0a13.1339,13.1339 0 0 0 11.3733,-19.7zm-170.4883,-37.1747c-33.6755,0 -63.0017,-19.3842 -78.75,-48.125c15.7483,-28.7408 45.0745,-48.125 78.75,-48.125c33.667,0 62.9975,19.3842 78.75,48.125c-15.7524,28.7408 -45.083,48.125 -78.75,48.125z"/>
  <circle fill="#3f007f" id="svg_7" r="26.25" cy="366.835231" cx="256.0024"/>
  <path fill="#3f007f" id="svg_8" d="m243.170362,188.171839l-41.6694,72.1747l106.09,0l-41.6693,-72.1747a13.1363,13.1363 0 0 0 -22.7513,0z"/>
 </g>
</svg>