<?xml version="1.0" ?><svg viewBox="0 0 512 512" xmlns="http://www.w3.org/2000/svg"><g id="Immune"><path d="M408.6943,202.4634,402.7,192.91q-.9639-1.5352-1.9551-3.0469c-24.4612-37.2715-63.9429-63.7857-108.5793-73.0286a62.6862,62.6862,0,0,0,21.4768-47.6189c0-33.874-26.1055-61.4326-58.1934-61.4326s-58.1933,27.5586-58.1933,61.4326a62.6794,62.6794,0,0,0,21.5576,47.6861c-43.4624,9.2656-80.8609,34.0107-105.4951,69.8872-1.3868,2.0215-2.7393,4.081-4.02,6.123l-5.9931,9.5518a70.1316,70.1316,0,0,0,7.2412,83.8349l51.0339,56.72-47.0017,140.455a15.7458,15.7458,0,0,0,14.9326,20.7442h50.6856A15.6525,15.6525,0,0,0,195.2139,493.21l50.914-157.3223a10.355,10.355,0,0,1,9.836-7.1807h.0381a10.3424,10.3424,0,0,1,9.87,7.1807l50.8925,157.2549a15.6754,15.6754,0,0,0,15.0381,11.0752h50.6856a15.7458,15.7458,0,0,0,14.9326-20.7442L350.4194,343.0178l51.0337-56.72A70.13,70.13,0,0,0,408.6943,202.4634ZM209.2559,69.2153c0-27.2568,20.7226-49.4326,46.1933-49.4326s46.1934,22.1758,46.1934,49.4326-20.7227,49.4336-46.1934,49.4336S209.2559,96.4731,209.2559,69.2153ZM346.0438,329.9419l-6.1688-18.4346a90.1485,90.1485,0,0,1-4.667-28.3974l-.0029-.8985,23.041-30.3818a20.04,20.04,0,0,0-.1621-24.4014l-16.3281-20.9463a10.4806,10.4806,0,0,0-18.7461,6.4727l.1884,66.7314a6.0138,6.0138,0,0,0,.003,1.125l.0068,2.3321a102.1237,102.1237,0,0,0,5.2871,32.1718L386.042,487.2817a3.7459,3.7459,0,0,1-3.5537,4.9356H331.8027a3.7541,3.7541,0,0,1-3.6-2.7031l-50.915-157.3223a22.3012,22.3012,0,0,0-21.2852-15.4854h-.081a22.33,22.33,0,0,0-21.211,15.4854l-50.9345,157.39a3.732,3.732,0,0,1-3.5791,2.6358H129.5117a3.7459,3.7459,0,0,1-3.5537-4.9356l57.5469-171.9668a102.0914,102.0914,0,0,0,5.2871-32.1718l.0068-2.3321a6.0138,6.0138,0,0,0,.003-1.125l.1884-66.7314a10.48,10.48,0,0,0-18.7451-6.4727L153.918,227.4272a20.037,20.037,0,0,0-.1641,24.4014l23.041,30.3828-.0029.8985a90.138,90.138,0,0,1-4.666,28.3964l-6.169,18.4346-46.49-51.6689A58.0859,58.0859,0,0,1,113.47,208.84l5.9942-9.5517c1.1933-1.9033,2.455-3.8242,3.748-5.708,23.2852-33.9131,58.8848-57.1377,100.24-65.3965l10.1769-2.033a55.1795,55.1795,0,0,0,43.6509-.0041l10.4,2.0127c42.3808,8.2031,79.9355,33.0927,103.0322,68.2871q.9273,1.4121,1.8252,2.8418L398.53,208.84a58.0859,58.0859,0,0,1-5.9971,69.4317Zm-10.8944-67.5156-.1269-45.0635,13.5966,17.4424a8.0254,8.0254,0,0,1,.0645,9.7734Zm-158.2988,0-13.5342-17.8477a8.0241,8.0241,0,0,1,.0654-9.7734l13.5957-17.4414Z"/><path d="M347.7412,101.1743h14.1055V115.28a6,6,0,0,0,12,0V101.1743h14.1064a6,6,0,0,0,0-12H373.8467V75.0679a6,6,0,0,0-12,0V89.1743H347.7412a6,6,0,0,0,0,12Z"/><path d="M302.23,185.9917c-9.0342-3.27-25.6-10.6543-35.041-23.3848a14.4723,14.4723,0,0,0-11.1331-5.8945,5.53,5.53,0,0,0-.5986-.0347l-.0066,0h-.001a5.5248,5.5248,0,0,0-.6067.0352,14.4745,14.4745,0,0,0-11.1325,5.8945c-9.4414,12.7305-26.0069,20.1153-35.042,23.3848a14.69,14.69,0,0,0-9.6143,15.0742c5.2442,60.1465,36.3516,79.4043,49.4824,84.8916a17.7858,17.7858,0,0,0,13.8262,0c13.1309-5.4873,44.2383-24.7451,49.4824-84.8916A14.6887,14.6887,0,0,0,302.23,185.9917Zm-92.2168,14.1191a3.6752,3.6752,0,0,1,2.3984-3.7754c9.4473-3.4184,26.2421-10.9216,37.5381-23.9658v14.7715a5.4851,5.4851,0,0,0,.1695,1.3325c-7.8414,7.2625-17.2544,12.0987-23.9527,14.9273a5.5,5.5,0,0,0-3.3164,5.7637c4.0349,31.5883,17.6387,45.2675,27.1321,51.0617a5.5039,5.5039,0,0,0-.0325.5886v13.69C237.55,268.3147,214.376,250.1646,210.0127,200.1108Zm90.873,0c-4.3632,50.0538-27.5371,68.2039-39.9365,74.3943v-13.69a5.5466,5.5466,0,0,0-.0323-.5883c9.4933-5.7935,23.097-19.4729,27.1329-51.062a5.5,5.5,0,0,0-3.3164-5.7637c-6.6973-2.8286-16.1113-7.6651-23.9536-14.9273a5.4869,5.4869,0,0,0,.1694-1.3325V172.37c11.296,13.0442,28.0907,20.5474,37.5371,23.9658A3.6747,3.6747,0,0,1,300.8857,200.1108Z"/></g></svg>