<?xml version="1.0" ?><!DOCTYPE svg  PUBLIC '-//W3C//DTD SVG 1.1//EN'  'http://www.w3.org/Graphics/SVG/1.1/DTD/svg11.dtd'><svg height="96" version="1.1" viewBox="0 0 96 96" width="96" xmlns="http://www.w3.org/2000/svg" xmlns:xlink="http://www.w3.org/1999/xlink"><path d="M82.22 63.112c0.008-0.752-0.016-1.548-0.040-2.32-0.024-0.54-0.040-1.064-0.040-1.54 0-14.86-11.236-26.476-22.092-29.12-0.592-0.14-1.228-0.008-1.712 0.38-0.484 0.376-0.76 0.952-0.76 1.572 0 9.856-3.684 13-10.204 13.728 2.224-3.5 3.012-5.432 3.012-10.328 0-10.048-1.948-14.572-5.78-19.86-3.328-4.6-3.356-13.468-3.356-13.56 0-0.748-0.416-1.432-1.076-1.776-0.668-0.348-1.464-0.292-2.072 0.128-0.3 0.216-29.72 21.32-24.196 62.64-7.788 3.312-11.888 7.58-11.888 12.392 0 10.916 21.488 20.492 45.984 20.492s45.984-9.58 45.984-20.492c-0.008-4.796-4.068-9.032-11.764-12.336zM47.992 82.44c-12.188 0-25.348-8.084-25.348-21.164 0-7.9 5.208-15.936 10.348-19.804 0.652-0.484 1.532-0.532 2.232-0.104 0.696 0.416 1.072 1.224 0.944 2.024-1.268 8.076 3.616 17.532 9.86 19.088 6.668 1.656 14.060-4.284 16.224-12.948 0.040-0.144 0.056-0.296 0.076-0.448l0.088-0.584c0.148-0.764 0.736-1.384 1.5-1.564 0.756-0.188 1.564 0.092 2.044 0.716 3.184 4.084 4.868 8.904 4.868 13.924 0 12.084-9.6 20.864-22.836 20.864z" fill="#000000"/><path d="M45.064 66.36c-6.944-1.74-12.352-9.828-13.032-18.416-2.964 3.58-5.388 8.56-5.388 13.336 0 10.268 11.040 17.164 21.348 17.164 10.916 0 18.836-7.088 18.836-16.876 0-2.712-0.6-5.352-1.756-7.796-3.596 8.932-12.156 14.544-20.008 12.588z" fill="#000000"/></svg>