<svg viewBox="0 0 80 80" xml:space="preserve" xmlns="http://www.w3.org/2000/svg" enable-background="new 0 0 80 80"><path d="M55.5 37.5c0-5.5-.2-10.6-.5-14.6-1.3-.6-4.6-2.1-5.9-2.7-1.7-.8-2.7-5.5-2.8-6 0-.2.1-.4.3-.4.2 0 .4.1.4.3.4 1.9 1.3 5 2.3 5.5 1.1.6 4 1.8 5.5 2.5-.4-4.7-.8-7.9-1.2-8.8-.1-.3-.2-.4-.4-.6l-2.2-.6h2V8.5c0-.1-.3 0-.5-.4H27.3c-.2.4-.5.3-.5.4v3.4h2l-2.2.6c-.1.3-.3.4-.4.7-.3.9-.8 4-1.2 8.7 1.5-.7 4.4-2 5.5-2.5 1-.5 2-3.6 2.3-5.5 0-.2.2-.3.4-.3s.3.2.3.4c-.1.5-1 5.2-2.8 6-1.3.6-4.6 2.1-5.9 2.7-.3 4-.5 9.1-.5 14.6 0 11.7-1.8 30.4-2.3 33 3 1.4 10.1 1.9 14.5 1 .2-2.1 1.2-19.6 1.8-32.3.2-5.5.8-10.5 1.5-11.1.7.6 1.3 5.6 1.5 11.1.6 12.7 1.6 30.2 1.8 32.3 4.4.9 11.5.4 14.5-1-.2-2.5-2.1-21.2-2.1-32.8z" fill="#000000" class="fill-1c2b36"></path></svg>