<?xml version="1.0" ?><svg xmlns="http://www.w3.org/2000/svg" viewBox="0 0 451.58 511.95"><g id="Layer_2" data-name="Layer 2"><g id="spell_book" data-name="spell book"><path d="M75.22,135.42H15a15,15,0,0,1-15-15V15A15,15,0,0,1,15,0h105.4a15,15,0,0,1,15,15V75.24a15,15,0,0,1-15,15H90.22v30.18A15,15,0,0,1,75.22,135.42ZM30,105.43H60.23V75.24a15,15,0,0,1,15-15H105.4V30H30Z"/><path d="M436.59,135.42H376.36a15,15,0,0,1-15-15V90.24H331.19a15,15,0,0,1-15-15V15a15,15,0,0,1,15-15h105.4a15,15,0,0,1,15,15V120.42A15,15,0,0,1,436.59,135.42Zm-45.23-30H421.6V30H346.19V60.24h30.17a15,15,0,0,1,15,15Z"/><path d="M120.39,451.7H15a15,15,0,0,1-15-15V331.28a15,15,0,0,1,15-15H75.22a15,15,0,0,1,15,15v30.18h30.17a15,15,0,0,1,15,15V436.7A15,15,0,0,1,120.39,451.7Zm-90.4-30H105.4V391.46H75.22a15,15,0,0,1-15-15V346.28H30Z"/><path d="M436.59,451.7H331.19a15,15,0,0,1-15-15V376.46a15,15,0,0,1,15-15h30.18V331.28a15,15,0,0,1,15-15h60.23a15,15,0,0,1,15,15V436.7A15,15,0,0,1,436.59,451.7Zm-90.4-30H421.6V346.28H391.36v30.18a15,15,0,0,1-15,15H346.19Z"/><path d="M331.19,421.58H120.39a15,15,0,0,1,0-30h210.8a15,15,0,0,1,0,30Z"/><path d="M331.19,60.12H120.39a15,15,0,0,1,0-30h210.8a15,15,0,1,1,0,30Z"/><path d="M406.48,346.28a15,15,0,0,1-15-15V120.42a15,15,0,0,1,30,0V331.28A15,15,0,0,1,406.48,346.28Z"/><path d="M45.11,346.28a15,15,0,0,1-15-15V120.42a15,15,0,0,1,30,0V331.28A15,15,0,0,1,45.11,346.28Z"/><path d="M271,512a15,15,0,0,1-8.31-2.52l-36.86-24.58-36.85,24.58A15,15,0,0,1,165.63,497V406.58a15,15,0,1,1,30,0v62.34l21.86-14.57a15,15,0,0,1,16.63,0L256,468.92V406.58a15,15,0,1,1,30,0V497a15,15,0,0,1-15,15Z"/><path d="M225.79,361.34c-74.69,0-135.45-60.78-135.45-135.49S151.1,90.37,225.79,90.37s135.45,60.77,135.45,135.48S300.48,361.34,225.79,361.34Zm0-241A105.49,105.49,0,1,0,331.25,225.85,105.59,105.59,0,0,0,225.79,120.36Z"/><path d="M307.13,329.74a14.93,14.93,0,0,1-8-2.31l-73.35-46.2-73.34,46.19a15,15,0,0,1-22-18.12l28-72.12-55.4-36.45a15,15,0,0,1,8.24-27.53h72l28.47-73.27a15,15,0,0,1,14-9.56h0a15,15,0,0,1,14,9.56l28.46,73.27h72a15,15,0,0,1,8.24,27.53l-55.41,36.45,28,72.13a15,15,0,0,1-14,20.43ZM225.79,248.5a15,15,0,0,1,8,2.31l42.93,27-16-41.1a15,15,0,0,1,5.74-18l23.69-15.58H258a15,15,0,0,1-14-9.57l-18.21-46.86-18.2,46.86a15,15,0,0,1-14,9.57H161.42l23.69,15.58a15,15,0,0,1,5.73,18l-16,41.1,42.92-27A15,15,0,0,1,225.79,248.5Z"/></g></g></svg>