<?xml version="1.0" ?><svg data-name="Layer 1" height="24" id="Layer_1" viewBox="0 0 24 24" width="24" xmlns="http://www.w3.org/2000/svg"><title/><path d="M13.66669,19A1.68087,1.68087,0,0,1,12,17.3053v-2.645A4.62227,4.62227,0,0,1,16.58331,10h.83337a4.52477,4.52477,0,0,1,3.31873,1.46088A8.745,8.745,0,1,0,7,18.925V21h8.33331l-.74347-2ZM9,11,8,9,6,8,8,7,9,5l1,2,2,1L10,9Z"/><path d="M14.55811,16.92169c-.71838.11255-1.20758.13635-1.418-.152a1.85073,1.85073,0,0,1,0-1.42664c.17615-.44189.86591-.66144,1.49921-.70184a1.08643,1.08643,0,0,1,1.24054,1.07709C15.87988,16.40631,15.23462,16.81506,14.55811,16.92169Z"/><path d="M17.45557,18.43066c-.36169,0-.27515-.41968-.4613-.41638-.19556.00366-.13593.41638-.487.41638a.369.369,0,0,1-.36169-.46625,4.52949,4.52949,0,0,1,.52008-1.0246.3695.3695,0,0,1,.63153,0,4.51337,4.51337,0,0,1,.52045,1.0246A.36941.36941,0,0,1,17.45557,18.43066Z"/><path d="M20.86,16.76965c-.21039.28839-.70044.26459-1.4184.152-.67645-.10663-1.32178-.51538-1.32178-1.20343a1.0864,1.0864,0,0,1,1.24048-1.07709c.63336.04041,1.32355.25995,1.49969.70184A1.85241,1.85241,0,0,1,20.86,16.76965Z"/></svg>