<svg data-name="004_ROMANTIC" viewBox="0 0 24 24" xmlns="http://www.w3.org/2000/svg"><path d="M13 23a.997.997 0 0 1-.707-.293l-1-1a1 1 0 0 1 0-1.414l1.544-1.544a9.544 9.544 0 0 0 0-13.498l-1.544-1.544a1 1 0 0 1 0-1.414l1-1a1 1 0 0 1 1.414 1.414L13.414 3l.837.837a11.543 11.543 0 0 1 0 16.326l-.837.837.293.293A1 1 0 0 1 13 23Z" fill="#000000" class="fill-333333"></path><path d="M21 13H8a1 1 0 0 1 0-2h13a1 1 0 0 1 0 2Z" fill="#000000" class="fill-333333"></path><path d="M20 15a1 1 0 0 1-.707-1.707L20.586 12l-1.293-1.293a1 1 0 0 1 1.414-1.414l2 2a1 1 0 0 1 0 1.414l-2 2A.997.997 0 0 1 20 15ZM9.5 19.5a.997.997 0 0 1-.707-.293l-6.5-6.5a1 1 0 0 1 0-1.414l6.5-6.5a1 1 0 1 1 1.414 1.414L4.414 12l5.793 5.793A1 1 0 0 1 9.5 19.5Z" fill="#000000" class="fill-333333"></path></svg>