<svg width="512" height="512" xmlns="http://www.w3.org/2000/svg">
 <defs>
  <linearGradient y2="Infinity" y1="Infinity" x2="Infinity" x1="Infinity" id="SVGID_1_">
   <stop stop-color="#FFC3B0" offset="0.0051"/>
   <stop stop-color="#E8897B" offset="1"/>
  </linearGradient>
 </defs>
 <g>
  <title>background</title>
  <rect fill="none" id="canvas_background" height="514" width="514" y="-1" x="-1"/>
 </g>
 <g>
  <title>Layer 1</title>
  <path stroke="null" id="svg_6" fill="#161414" d="m207.997999,116.686001c0,0 -95.054538,72.746337 -133.104552,171.522383c-13.098583,34.002792 -14.054614,73.161764 0.135196,106.580293c14.226506,33.505169 44.838796,69.673956 110.378066,80.335096l22.59129,-358.437772z"/>
  <path id="svg_3" fill="#7baad1" d="m202.549,270.612c0,0 -57.87,11.671 -105.44,70.462c-4.968,6.141 -3.905,15.23 2.475,19.887c12.189,8.895 31.725,28.734 50.624,71.688c0,0 24.088,61.664 112.146,68.486c15.557,1.205 31.28,-1.234 45.438,-7.797c27.531,-12.764 69.115,-43.502 74.579,-113.742c1.179,-15.167 -1.207,-30.482 -7.755,-44.215c-14.913,-31.276 -56.448,-74.162 -172.067,-64.769z"/>
  <path id="svg_4" fill="#d7dde2" d="m382.37,379.596c1.18,-15.167 -1.207,-30.482 -7.755,-44.215c-13.178,-27.639 -47.188,-64.318 -134.701,-65.999l-7.499,18.492l-9.475,42.653c0,0 15.383,54.836 83.118,59.657c0,0 40.465,4.29 17.373,94.568c25.465,-16.291 54.442,-47.331 58.939,-105.156z"/>
  <path stroke="null" id="svg_7" fill="#C66760" d="m343.145004,225.223361l8.113187,0c14.600432,0 26.436351,-11.201742 26.436351,-25.021177l0,0c0,-13.818131 -11.835919,-25.021177 -26.436351,-25.021177l-8.113187,0l0,50.042353z"/>
  <polygon id="svg_11" points="355.691,125.158 353.036,265.008 191.06,265.008 193.781,126.47 " fill="url(#SVGID_1_)"/>
  <path stroke="null" id="svg_13" fill="#E8897B" d="m193.472542,235.405171l-8.451986,0c-15.215296,0 -27.551091,-13.969281 -27.551091,-31.202989l0,0c0,-17.232083 12.334361,-31.202989 27.551091,-31.202989l8.451986,0l0,62.405977z"/>
  <path stroke="null" id="svg_14" fill="#161414" d="m193.313853,153.6815l-3.16832,142.48194c-0.629,79.05927 46.763,143.60179 105.442,143.60179l0,0c31.338,0 56.742,-34.22901 56.742,-76.45342l0,-135.29381l-92.583,0.64001l-25.869,19.32287c0,0 -8.27062,-46.43925 -33.13833,-89.91466c-0.12598,-24.8769 10.85915,-48.6956 8.26404,-74.27797c-4.59991,-6.98749 -1.08696,-7.62577 -10.80151,-1.38575l-3.52733,10.05426z"/>
  <path id="svg_15" fill="#E8897B" d="m322.111,157.217l0,107.791l30.925,0l2.655,-139.85l-78.545,0.637c7.067,0.828 18.379,2.643 27.92,6.411c10.277,4.057 17.045,13.962 17.045,25.011z"/>
  <path stroke="null" id="svg_16" fill="#231f1f" d="m322.647272,287.306103l0,65.967124c0,18.593179 -2.73,37.115454 -8.674,53.923966c-3.8,10.744123 -9.242,21.95515 -16.884,31.287861c31.306,-0.0495 56.674,-34.013023 56.674,-75.90721l0,-134.335655l-14.55,0.100337l-47.299,8.18619c0.001,0 29.168,1.09167 30.733,50.777387z"/>
  <path id="svg_17" fill="#2d2929" d="m189.977175,203.296318c0,0 6.586,-24.162 29.779,-31.28c13.558,-4.161 24.319,-15.881 22.938,-31.864l-52.176,0l-0.541,63.144z"/>
  <circle id="svg_18" r="7.924" fill="#bf6613" cy="177.479593" cx="278.113"/>
  <circle id="svg_19" r="7.924" fill="#bf6613" cy="177.479593" cx="337.904"/>
  <path id="svg_20" fill="#231f1f" d="m388.60594,205.43397c-6.16,-1.846 -28.98594,27.46203 -33.85394,18.75803c-5.877,-10.51 -16.086,-17.499 -27.408,-19.837c-6.424,-1.327 -36.146,-1.327 -42.569,0c-11.322,2.339 -21.532,9.328 -27.409,19.837c-4.868,8.704 -25.06238,-30.54546 -31.22138,-28.69946c-5.479,1.642 9.90052,49.67551 14.45552,53.29251c9.265,7.358 17.06886,10.75495 25.44286,9.76295c5.698,-0.675 10.997,-3.694 14.431,-8.556c9.82,-13.9 41.353,-13.9 51.172,0c3.435,4.862 8.732,7.881 14.432,8.556c8.374,0.991 14.71589,-7.96046 23.98089,-15.31846c4.553,-3.618 24.02605,-36.15457 18.54705,-37.79557z"/>
  <path stroke="null" id="svg_39" fill="#d7dde2" d="m278.77565,116.33863l-91.76393,0.11601l0.11601,-66.69167c1.16009,-5.46365 6.78465,-7.22785 15.29973,-6.6478l60.93462,0c8.51291,0 15.41357,2.92428 15.41357,6.53179l0,66.69167z"/>
  <path stroke="null" id="svg_41" fill="#7baad1" d="m363.019128,116.96266l-91.76393,0.11601l0.11601,-66.69167c1.16009,-5.46365 6.78465,-7.22785 15.29973,-6.6478l60.93462,0c8.51291,0 15.41357,2.92428 15.41357,6.53179l0,66.69167z"/>
  <path stroke="null" id="svg_24" fill="#c0ccd8" d="m285.328967,128.439261l-16.250914,0l0,-103.511464c0,-5.599171 1.222072,-10.137926 2.730046,-10.137926l10.791204,0c1.507592,0 2.729664,4.538755 2.729664,10.137926l0,103.511464z"/>
  <path stroke="null" transform="rotate(-18.23396110534668 299.2418212890626,148.34173583984366) " id="svg_32" fill="#2d2929" d="m302.365672,170.944951l-6.2477,0l0,-41.173782c0,-2.227184 0.469828,-4.032565 1.049572,-4.032565l4.148702,0c0.579597,0 1.049425,1.805382 1.049425,4.032565l0,41.173782z"/>
  <path stroke="null" transform="rotate(12.396669387817383 296.69635009765636,147.50668334960923) " id="svg_33" fill="#2d2929" d="m298.044433,169.719563l-2.696128,0l0,-40.462769c0,-2.18872 0.20275,-3.962924 0.452935,-3.962924l1.790327,0c0.250116,0 0.452866,1.774204 0.452866,3.962924l0,40.462769z"/>
  <path stroke="null" transform="rotate(-2.5097553730010986 298.8781738281245,150.41577148437455) " id="svg_34" fill="#2d2929" d="m300.226247,172.628651l-2.69613,0l0,-40.46277c0,-2.18872 0.20276,-3.96292 0.45294,-3.96292l1.79033,0c0.25011,0 0.45286,1.7742 0.45286,3.96292l0,40.46277z"/>
  <path stroke="null" id="svg_31" fill="#2d2929" d="m363.654251,207.612953c0,0 -6.468087,-24.162 -29.245848,-31.28c-13.315263,-4.161 -23.883602,-15.881 -22.527327,-31.864l51.24186,0l0.531314,63.144z"/>
  <path stroke="null" id="svg_43" fill="#ffffff" d="m270.976378,143.415879l-16.25092,0l0,-103.51146c0,-5.59918 1.22207,-10.13793 2.73005,-10.13793l10.7912,0c1.5076,0 2.72967,4.53875 2.72967,10.13793l0,103.51146z"/>
  <path stroke="null" id="svg_44" fill="#EEF6FF" d="m299.057539,142.791854l-16.25092,0l0,-103.51146c0,-5.59918 1.22207,-10.13793 2.73005,-10.13793l10.7912,0c1.5076,0 2.72967,4.53875 2.72967,10.13793l0,103.51146z"/>
  <path id="svg_25" fill="#C7DAFF" d="m355.416816,152.042901l-168.665,0c-5.209,0 -9.433,-4.223 -9.433,-9.433l0,-17.518c0,-5.209 4.224,-9.433 9.433,-9.433l168.665,0c5.209,0 9.433,4.223 9.433,9.433l0,17.518c0,5.21 -4.224,9.433 -9.433,9.433z"/>
  <path id="svg_26" fill="#819fea" d="m370.14082,125.092901c0,-5.209 -4.224,-9.433 -9.433,-9.433l-39.191,0c-1.293,9.151 -9.465,33.752 -44.131,36.383l83.322,0c5.209,0 9.433,-4.223 9.433,-9.433l0,-17.517z"/>
  <path id="svg_27" fill="#161414" d="m388.937566,205.72636c-6.16,-1.846 -28.69354,27.16964 -33.56154,18.46564c-3.545,-6.339 -8.683,-11.37 -14.674,-14.899c0.341,19.169 -12.017,27.699 -23.955,31.457c6.513,1.54 12.239,4.596 15.521,9.242c3.436,4.862 8.732,7.881 14.432,8.556c8.374,0.991 15.59307,-9.13004 24.85807,-16.48804c4.555,-3.618 22.85847,-34.6926 17.37947,-36.3336z"/>
  <circle id="svg_28" r="3.83" fill="#E8897B" cy="207.806593" cx="308.578"/>
  <path id="svg_35" d="m256.733882,81.539049" opacity="0.5" fill-opacity="null" stroke-opacity="null" stroke-width="null" stroke="null" fill="#EEF6FF"/>
 </g>
</svg>